<svg width="76" height="87" viewBox="0 0 76 87" fill="none" xmlns="http://www.w3.org/2000/svg">
<path d="M45.7753 41.8817L48.2404 38.8425L42.9685 23.2929C42.9685 23.2929 44.8062 21.6412 47.2851 18.9764C48.7986 17.2576 49.669 15.0615 49.7521 12.7521L49.7512 12.7632L49.5653 12.5773C47.2694 12.6596 45.0856 13.522 43.3732 15.0223L43.3511 15.0423C40.6872 17.5203 39.0345 19.3589 39.0345 19.3589L23.486 14.0881L20.4468 16.5532L29.5615 21.5136L33.7106 24.4969C31.1737 26.7765 29.013 29.4423 27.3055 32.3996L27.431 32.2006L23.5475 30.5105L21.7467 32.3112L26.1438 35.1059C25.9897 35.5767 25.8834 35.9792 25.7964 36.3849L25.81 36.3284L25.5276 36.6109C25.6064 36.5975 25.6871 36.5781 25.7658 36.5627C25.7524 36.6414 25.732 36.7211 25.7186 36.8019L26.0011 36.5195C26.3493 36.4471 26.7518 36.3408 27.1491 36.2132L27.2236 36.1857L30.0183 40.5828L31.819 38.782L30.1289 34.8985C32.3375 33.6359 34.6013 31.9135 36.6554 29.8594C37.0811 29.4338 37.4925 28.9999 37.8886 28.5568L37.8336 28.6179L40.818 32.7681L45.7753 41.8817Z" fill="#4621AD"/>
<path d="M13.209 73.9813C12.543 73.9813 11.988 73.8333 11.544 73.5373C11.1247 73.2166 10.7793 72.748 10.508 72.1313L0.851 50.4493C0.579667 49.8326 0.505667 49.29 0.629 48.8213C0.752333 48.3526 1.01133 47.9826 1.406 47.7113C1.80067 47.44 2.26933 47.3043 2.812 47.3043C3.52733 47.3043 4.05767 47.4646 4.403 47.7853C4.773 48.0813 5.08133 48.5376 5.328 49.1543L14.097 69.4673H12.506L21.238 49.1173C21.5093 48.5253 21.83 48.0813 22.2 47.7853C22.57 47.4646 23.088 47.3043 23.754 47.3043C24.2967 47.3043 24.7407 47.44 25.086 47.7113C25.456 47.9826 25.6903 48.3526 25.789 48.8213C25.8877 49.29 25.8013 49.8326 25.53 50.4493L15.873 72.1313C15.6017 72.748 15.2563 73.2166 14.837 73.5373C14.4423 73.8333 13.8997 73.9813 13.209 73.9813ZM39.6386 74.0553C37.1226 74.0553 34.9149 73.5003 33.0156 72.3903C31.1409 71.2803 29.6856 69.7263 28.6496 67.7283C27.6136 65.7056 27.0956 63.3376 27.0956 60.6243C27.0956 58.577 27.3916 56.7393 27.9836 55.1113C28.5756 53.4586 29.4142 52.0526 30.4996 50.8933C31.6096 49.7093 32.9292 48.809 34.4586 48.1923C36.0126 47.551 37.7392 47.2303 39.6386 47.2303C42.1792 47.2303 44.3869 47.7853 46.2616 48.8953C48.1362 49.9806 49.5916 51.5223 50.6276 53.5203C51.6636 55.5183 52.1816 57.874 52.1816 60.5873C52.1816 62.6346 51.8856 64.4846 51.2936 66.1373C50.7016 67.79 49.8506 69.2083 48.7406 70.3923C47.6552 71.5763 46.3356 72.489 44.7816 73.1303C43.2522 73.747 41.5379 74.0553 39.6386 74.0553ZM39.6386 69.9853C41.2419 69.9853 42.5986 69.6153 43.7086 68.8753C44.8432 68.1353 45.7066 67.0623 46.2986 65.6563C46.9152 64.2503 47.2236 62.573 47.2236 60.6243C47.2236 57.6643 46.5576 55.3703 45.2256 53.7423C43.9182 52.1143 42.0559 51.3003 39.6386 51.3003C38.0599 51.3003 36.7032 51.6703 35.5686 52.4103C34.4339 53.1256 33.5582 54.1863 32.9416 55.5923C32.3496 56.9736 32.0536 58.651 32.0536 60.6243C32.0536 63.5596 32.7196 65.8536 34.0516 67.5063C35.3836 69.159 37.2459 69.9853 39.6386 69.9853ZM58.8843 73.6853C58.0703 73.6853 57.4413 73.4756 56.9973 73.0563C56.578 72.6123 56.3683 71.9833 56.3683 71.1693V50.1163C56.3683 49.3023 56.578 48.6856 56.9973 48.2663C57.4413 47.8223 58.0703 47.6003 58.8843 47.6003H72.0933C72.71 47.6003 73.1787 47.7606 73.4993 48.0813C73.8447 48.402 74.0173 48.8583 74.0173 49.4503C74.0173 50.067 73.8447 50.548 73.4993 50.8933C73.1787 51.214 72.71 51.3743 72.0933 51.3743H60.9193V58.5523H71.2793C71.9207 58.5523 72.4017 58.7126 72.7223 59.0333C73.043 59.354 73.2033 59.8226 73.2033 60.4393C73.2033 61.056 73.043 61.5246 72.7223 61.8453C72.4017 62.166 71.9207 62.3263 71.2793 62.3263H60.9193V69.9113H72.0933C72.71 69.9113 73.1787 70.0716 73.4993 70.3923C73.8447 70.713 74.0173 71.1816 74.0173 71.7983C74.0173 72.415 73.8447 72.8836 73.4993 73.2043C73.1787 73.525 72.71 73.6853 72.0933 73.6853H58.8843Z" fill="#4621AD"/>
</svg>
