<svg width="119" height="99" viewBox="0 0 119 99" fill="none" xmlns="http://www.w3.org/2000/svg">
<path d="M72.9335 47.1899L76.9108 42.2957L68.405 17.2558C68.405 17.2558 71.3699 14.596 75.3695 10.3046C77.8114 7.53681 79.2157 4.00042 79.3498 0.281495L79.3484 0.299399L79.0484 0C75.3442 0.132628 71.8207 1.52127 69.0578 3.93734L69.0223 3.96956C64.7243 7.95989 62.0578 10.9207 62.0578 10.9207L36.9714 2.43288L32.0678 6.40257L46.7737 14.3904L53.468 19.1946C49.3749 22.8654 45.8888 27.1583 43.1339 31.9206L43.3363 31.6001L37.0706 28.8784L34.1652 31.7782L41.2596 36.2785C41.0109 37.0367 40.8395 37.6849 40.6991 38.3382L40.721 38.2472L40.2654 38.7021C40.3924 38.6805 40.5227 38.6492 40.6497 38.6244C40.6281 38.7513 40.5951 38.8796 40.5736 39.0097L41.0293 38.5549C41.5911 38.4383 42.2405 38.2672 42.8815 38.0617L43.0018 38.0173L47.5108 45.0981L50.4161 42.1983L47.6892 35.9446C51.2527 33.9113 54.9051 31.1378 58.2192 27.83C58.906 27.1445 59.5698 26.4459 60.2089 25.7323L60.1201 25.8307L64.9352 32.5139L72.9335 47.1899Z" fill="white"/>
<path d="M20.3902 98.8808C19.3156 98.8808 18.4202 98.6425 17.7038 98.1659C17.0273 97.6495 16.4701 96.8948 16.0323 95.9017L0.451457 60.9865C0.0136805 59.9934 -0.105713 59.1196 0.0932762 58.3649C0.292266 57.6101 0.710143 57.0143 1.34691 56.5774C1.98367 56.1405 2.73983 55.922 3.61539 55.922C4.76953 55.922 5.62518 56.1802 6.18235 56.6966C6.77932 57.1732 7.27679 57.9081 7.67477 58.9011L21.8229 91.6118H19.2559L33.3444 58.8415C33.7822 57.8882 34.2995 57.1732 34.8965 56.6966C35.4935 56.1802 36.3292 55.922 37.4038 55.922C38.2793 55.922 38.9957 56.1405 39.5529 56.5774C40.1498 57.0143 40.5279 57.6101 40.6871 58.3649C40.8463 59.1196 40.707 59.9934 40.2692 60.9865L24.6884 95.9017C24.2506 96.8948 23.6934 97.6495 23.0168 98.1659C22.3801 98.6425 21.5045 98.8808 20.3902 98.8808Z" fill="white"/>
<path d="M63.0323 99C58.973 99 55.4111 98.1063 52.3466 96.3188C49.322 94.5313 46.9739 92.0289 45.3024 88.8114C43.6309 85.5543 42.7951 81.741 42.7951 77.3716C42.7951 74.0747 43.2727 71.1155 44.2279 68.4939C45.183 65.8325 46.5361 63.5684 48.2872 61.7015C50.0781 59.7948 52.2073 58.345 54.6748 57.352C57.1821 56.3192 59.9679 55.8028 63.0323 55.8028C67.1315 55.8028 70.6934 56.6966 73.7181 58.484C76.7427 60.2318 79.0908 62.7144 80.7623 65.9318C82.4338 69.1493 83.2696 72.9427 83.2696 77.312C83.2696 80.6089 82.792 83.588 81.8368 86.2494C80.8817 88.9107 79.5087 91.1947 77.7178 93.1014C75.9667 95.008 73.8375 96.4777 71.3302 97.5104C68.8627 98.5035 66.0968 99 63.0323 99ZM63.0323 92.4459C65.6192 92.4459 67.8081 91.8501 69.599 90.6585C71.4297 89.4668 72.8226 87.7389 73.7778 85.4748C74.7727 83.2107 75.2702 80.5096 75.2702 77.3716C75.2702 72.605 74.1957 68.9109 72.0466 66.2893C69.9373 63.6677 66.9325 62.3569 63.0323 62.3569C60.4853 62.3569 58.2964 62.9527 56.4657 64.1443C54.635 65.2963 53.2222 67.0043 52.2272 69.2684C51.2721 71.4928 50.7945 74.1939 50.7945 77.3716C50.7945 82.0985 51.8691 85.7926 54.0181 88.4539C56.1672 91.1153 59.172 92.4459 63.0323 92.4459Z" fill="white"/>
<path d="M94.084 98.4042C92.7707 98.4042 91.7558 98.0665 91.0395 97.3913C90.3629 96.6763 90.0246 95.6634 90.0246 94.3526V60.4502C90.0246 59.1394 90.3629 58.1464 91.0395 57.4711C91.7558 56.7561 92.7707 56.3986 94.084 56.3986H115.396C116.391 56.3986 117.147 56.6568 117.664 57.1732C118.221 57.6896 118.5 58.4244 118.5 59.3778C118.5 60.3708 118.221 61.1454 117.664 61.7015C117.147 62.2178 116.391 62.476 115.396 62.476H97.3673V74.035H114.082C115.117 74.035 115.893 74.2932 116.411 74.8096C116.928 75.326 117.187 76.0807 117.187 77.0737C117.187 78.0667 116.928 78.8215 116.411 79.3378C115.893 79.8542 115.117 80.1124 114.082 80.1124H97.3673V92.3268H115.396C116.391 92.3268 117.147 92.585 117.664 93.1014C118.221 93.6177 118.5 94.3724 118.5 95.3655C118.5 96.3585 118.221 97.1132 117.664 97.6296C117.147 98.146 116.391 98.4042 115.396 98.4042H94.084Z" fill="white"/>
</svg>
